<svg width="66" height="70" fill="none" xmlns="http://www.w3.org/2000/svg"><path d="M65.086 48.339L46.752 29.734l2.035-10.097a4.59 4.59 0 001.647.319h.014c2.588.03 4.712-2.059 4.743-4.667.03-2.608-2.044-4.747-4.633-4.778-2.588-.03-4.712 2.059-4.743 4.667a4.752 4.752 0 00.271 1.638l-10.77 1.325L17.748.35A1.154 1.154 0 0016.93 0a1.154 1.154 0 00-.81.34l-3.285 3.29a1.173 1.173 0 000 1.65l1.767 1.805c-6.846 12.683-4.622 28.39 5.471 38.638.093.09.2.161.318.213a6.817 6.817 0 00-.114 1.197v13.534H6.38C3.184 60.67.593 63.28.59 66.5v2.333c0 .645.518 1.167 1.158 1.167H55.02c.64 0 1.158-.522 1.158-1.167V66.5c-.004-3.22-2.594-5.83-5.79-5.833H36.49v-5.998c2.177.46 4.396.694 6.62.7a32.056 32.056 0 0015.287-3.901l1.776 1.8c.216.221.51.347.818.35.304-.002.595-.124.81-.34l3.285-3.29a1.173 1.173 0 000-1.65zM48.815 13.635a2.304 2.304 0 013.275.009 2.345 2.345 0 01-.009 3.3 2.308 2.308 0 01-1.634.678h-.007a2.325 2.325 0 01-2.304-2.345 2.342 2.342 0 01.683-1.642h-.004zM46.089 21.3l-1.3 6.444-2.552-2.587 3.852-3.857zm-1.316-1.973l-4.17 4.176-3.224-3.267 7.394-.909zM50.387 63c1.92 0 3.475 1.567 3.475 3.5v1.167H2.906V66.5c0-1.933 1.555-3.5 3.474-3.5h44.007zm-16.213-4.667v2.334h-11.58v-2.334h11.58zM22.594 56v-8.867c0-2.83 2.597-5.133 5.79-5.133s5.79 2.303 5.79 5.133V56h-11.58zm13.896-3.71v-5.157c0-4.117-3.636-7.466-8.106-7.466a8.236 8.236 0 00-7.125 3.907c-8.81-9.35-10.795-23.286-4.948-34.753l40.393 40.925A29.813 29.813 0 0136.49 52.29zm24.514-1.496l-1.632-1.653L16.919 6.116l-1.64-1.655 1.64-1.645 17.23 17.456c.008 0 .012.015.02.021l28.478 28.856-1.643 1.645z" fill="#212121"/><path d="M28.394 44.333h-.01c-1.919-.003-3.477 1.562-3.48 3.495-.003 1.933 1.55 3.502 3.47 3.505h.01c1.919.003 3.476-1.561 3.48-3.494.002-1.933-1.551-3.503-3.47-3.506zm.81 4.328a1.154 1.154 0 01-1.972-.834c.001-.308.124-.603.341-.82.216-.217.507-.339.81-.34.64.003 1.156.528 1.153 1.172a1.172 1.172 0 01-.342.822h.01z" fill="#2196F3"/></svg>