<svg width="11" height="14" viewBox="0 0 11 14" fill="none" xmlns="http://www.w3.org/2000/svg">
<path d="M9.34753 0.224304H2.37076C1.54635 0.224304 0.875732 0.76785 0.875732 1.43605V11.9378C0.875732 12.606 1.54635 13.1495 2.37076 13.1495H9.34753C10.1719 13.1495 10.8426 12.606 10.8426 11.9378V1.43605C10.8426 0.76785 10.1719 0.224304 9.34753 0.224304ZM2.37076 1.03213H9.34753C9.62249 1.03213 9.84587 1.21318 9.84587 1.43605V9.91824H1.87241V1.43605C1.87241 1.21318 2.09579 1.03213 2.37076 1.03213ZM9.34753 12.3417H2.37076C2.09579 12.3417 1.87241 12.1607 1.87241 11.9378V10.7261H9.84587V11.9378C9.84587 12.1607 9.62249 12.3417 9.34753 12.3417Z" fill="#757575"/>
<path d="M3.22157 11.2483C3.41619 11.4061 3.41619 11.6619 3.22157 11.8197C3.02695 11.9775 2.71143 11.9775 2.51681 11.8197C2.32219 11.6619 2.32219 11.4061 2.51681 11.2483C2.71143 11.0905 3.02695 11.0905 3.22157 11.2483Z" fill="#757575"/>
</svg>
